<svg xmlns="http://www.w3.org/2000/svg" width="479" height="474" fill="none" viewBox="0 0 479 474">
  <g filter="url(#a)">
    <g filter="url(#b)">
      <path fill="url(#c)" d="M346.892 211.097c24.8-30.6 65.7-15.3 77-37.7 12.6-25.1-26.7-68.3-44.9-88.3-26.7-29.3-49.8-54.7-87.5-58.6-42.7-4.5-93.1 19.6-99.4 51.2-6.1 30.6 33.5 47.6 26.6 75.9-9.1 36.8-82.1 32.7-86.6 61-4 25.4 50.2 58.4 97.4 67.7 11.9 2.3 69.4 13.6 96-16.8 16.3-18.6 4.8-33.9 21.4-54.4Z"/>
    </g>
    <g filter="url(#d)" opacity=".56">
      <path fill="#FFDD95" d="M92.092 256.497c-.1-94.5 103.6-154.5 189.3-129.2 62.3 18.3 91.3 70.3 98.3 84 19.3 37.8 41.6 117-2.6 155.6-28 24.4-73.8 30.6-106.1 10.9-13.6-8.3-23.6-20.7-27.9-36.1-2.6-9.2-2-20.3-12.5-24.5-4.8-1.9-10.3-1.9-15.4-.7-23.3 5.7-38.2 34-64 31.1-15.3-1.7-25.8-15.1-35-26.1-15.2-18.3-24.1-41.1-24.1-65Z"/>
    </g>
    <g filter="url(#e)">
      <path fill="url(#f)" d="M52.592 253.697c5.4-20.7 45.7-12.3 72.3-46.5 13-16.7 22.8-43.7 16.1-68.1-11-40.1-58.4-43.4-58.2-68.2.2-25.2 48.1-58.1 85.9-49.5 43.8 9.9 47.9 69.3 92.3 74.5 26.8 3.2 40.2-16.7 56.6-8.6 23.9 11.8 23.3 61.9 17.3 91.6-10.6 52.7-47.1 84.8-60.1 95.9-10.6 9.1-85.1 70.8-158.6 44.7-35.4-12.6-69.1-45.2-63.6-65.8Z"/>
    </g>
    <path fill="#FFDD95" d="M118.692 128.897c-1.7-5.6-4.9-10.7-8.9-13.8-6.7-5.1-16.2-7.3-24.6-6-9 1.4-20.9 10.1-14.9 20.5 2.8 4.8 8.1 6.1 13.2 7 1.6.3 3.2.6 4.4 1.7 1.5 1.3 1.8 3.5 2.3 5.4 2.1 7.1 9.7 14.2 17.6 12 12.1-3.3 14.3-16 10.9-26.8Z" opacity=".56"/>
    <path fill="#FFDD95" d="M99.792 168.297c0-.5-.1-.7-.1-1.4-.2-1.4-.3-2.3-1.2-3.6-1.4-2.2-3.3-3.6-5.8-4.4h-.1c-.2-.1-.5-.2-.7-.3-1.6-.4-3.2-.4-4.7 0-1.5.5-2.9 1.2-4.1 2.3-.3.3-.5.7-.8 1-.3.3-.6.7-.8 1-.4.6-.8 1.7-1 2.4-.3.8-.3 1.8-.3 2.7 0 1.8.3 2.5.9 4 .5 1.3.5 1.2 1.3 2.2.8 1.1.7 1 1.8 1.8.4.3.7.6 1.1.9 1.4.9 3.1 1.2 4.7 1.3 1.7.1 3.6-.6 5-1.4.9-.5 1.4-.9 2-1.6.5-.5 1.1-1.3 1.5-2 .7-1.2 1-2.4 1.1-3.6.1-.4.2-.9.2-1.3Zm-17.8-20.1c-.2-.6-.5-1.2-.9-1.7-.1-.2-.3-.4-.5-.6-.2-.2-.3-.3-.5-.4-.3-.3-.7-.5-1.1-.6-.4-.2-.8-.3-1.2-.3-.6-.1-1.3-.1-1.9.1-.4.1-.8.3-1.2.5-.2.1-.9.6-1 .8-.1.1-.7.9-.8 1-.1.2-.5 1-.5 1.2-.1.4-.1.9-.2 1.3.1.4.1.9.2 1.3.2.6.5 1.2.9 1.7.2.4.5.7.9.9.3.3.7.5 1.1.6.4.2.8.3 1.3.3.4.1.9.1 1.3 0 .7 0 1.3-.2 1.8-.6.3-.3.7-.5 1-.8.3-.3.5-.7.8-1 .2-.4.3-.8.5-1.2.1-.4.1-.9.2-1.3-.1-.3-.2-.8-.2-1.2Z"/>
    <path fill="url(#g)" d="M417.593 235.097c-.4-10-5.6-20-12-27.5-3.8-4.5-12.6-13.6-18.2-6.5-3.6 4.6.6 9.7 2.7 13.9 2.6 5.2 5 10.9 7.2 16.4 1.8 4.7 3 11 8 13.6 4 2.1 8.2.1 10.5-3.4 1.5-2 1.9-4.2 1.8-6.5Z"/>
    <path fill="url(#h)" d="M408.892 192.597c-2.9-1.6-5.5-2.5-8.8-1.2-1.7.7-1.6 3-.1 3.7 2.6 1.3 14.3 13.9 16 5 .8-4-4.3-6-7.1-7.5Z"/>
    <path fill="url(#i)" d="M217.393 357.497c7.732 0 14-6.268 14-14s-6.268-14-14-14-14 6.268-14 14 6.268 14 14 14Z"/>
    <path fill="url(#j)" d="M236.393 364.497a5 5 0 1 0 0-10 5 5 0 0 0 0 10Z"/>
    <path fill="url(#k)" d="M221.393 373.497a4 4 0 1 0 0-8 4 4 0 0 0 0 8Z"/>
    <path stroke="url(#l)" stroke-miterlimit="10" stroke-width="3.333" d="M380.893 62.997c7.179 0 13-5.82 13-13s-5.821-13-13-13c-7.18 0-13 5.82-13 13s5.82 13 13 13Z"/>
    <path stroke="url(#m)" stroke-miterlimit="10" stroke-width="1.257" d="m393.692 71.797 2.6-3.3 2.6-3.2 1.5 3.9 1.5 3.9-4.1-.7-4.1-.6Z"/>
    <path stroke="url(#n)" stroke-miterlimit="10" stroke-width="1.257" d="m402.692 31.797 2.6-3.3 2.6-3.2 1.5 3.9 1.5 3.9-4.1-.7-4.1-.6Z"/>
  </g>
  <defs>
    <linearGradient id="c" x1="126.383" x2="360.218" y1="240.904" y2="104.902" gradientUnits="userSpaceOnUse">
      <stop stop-color="#FC887B"/>
      <stop offset=".996" stop-color="#FFDD95"/>
    </linearGradient>
    <linearGradient id="f" x1="82.944" x2="259.212" y1="325.394" y2="53.293" gradientUnits="userSpaceOnUse">
      <stop stop-color="#86E3CE"/>
      <stop offset="1" stop-color="#D0E6A5"/>
    </linearGradient>
    <linearGradient id="g" x1="385.988" x2="417.601" y1="222.233" y2="222.233" gradientUnits="userSpaceOnUse">
      <stop stop-color="#86E3CE"/>
      <stop offset="1" stop-color="#D0E6A5"/>
    </linearGradient>
    <linearGradient id="h" x1="398.912" x2="416.114" y1="197.021" y2="197.021" gradientUnits="userSpaceOnUse">
      <stop stop-color="#86E3CE"/>
      <stop offset="1" stop-color="#D0E6A5"/>
    </linearGradient>
    <linearGradient id="i" x1="203.393" x2="231.393" y1="343.497" y2="343.497" gradientUnits="userSpaceOnUse">
      <stop stop-color="#86E3CE"/>
      <stop offset="1" stop-color="#D0E6A5"/>
    </linearGradient>
    <linearGradient id="j" x1="231.393" x2="241.393" y1="359.497" y2="359.497" gradientUnits="userSpaceOnUse">
      <stop stop-color="#86E3CE"/>
      <stop offset="1" stop-color="#D0E6A5"/>
    </linearGradient>
    <linearGradient id="k" x1="217.393" x2="225.393" y1="369.497" y2="369.497" gradientUnits="userSpaceOnUse">
      <stop stop-color="#86E3CE"/>
      <stop offset="1" stop-color="#D0E6A5"/>
    </linearGradient>
    <linearGradient id="l" x1="366.226" x2="395.559" y1="49.997" y2="49.997" gradientUnits="userSpaceOnUse">
      <stop stop-color="#86E3CE"/>
      <stop offset="1" stop-color="#D0E6A5"/>
    </linearGradient>
    <linearGradient id="m" x1="398.858" x2="397.707" y1="63.976" y2="73.166" gradientUnits="userSpaceOnUse">
      <stop stop-color="#86E3CE"/>
      <stop offset="1" stop-color="#D0E6A5"/>
    </linearGradient>
    <linearGradient id="n" x1="407.856" x2="406.704" y1="23.978" y2="33.167" gradientUnits="userSpaceOnUse">
      <stop stop-color="#86E3CE"/>
      <stop offset="1" stop-color="#D0E6A5"/>
    </linearGradient>
    <filter id="a" width="478.337" height="473.499" x="0" y="0" color-interpolation-filters="sRGB" filterUnits="userSpaceOnUse">
      <feFlood flood-opacity="0" result="BackgroundImageFix"/>
      <feColorMatrix in="SourceAlpha" result="hardAlpha" values="0 0 0 0 0 0 0 0 0 0 0 0 0 0 0 0 0 0 127 0"/>
      <feMorphology in="SourceAlpha" radius="12" result="effect1_dropShadow_105_287"/>
      <feOffset dy="32"/>
      <feGaussianBlur stdDeviation="32"/>
      <feComposite in2="hardAlpha" operator="out"/>
      <feColorMatrix values="0 0 0 0 0 0 0 0 0 0 0 0 0 0 0 0 0 0 0.14 0"/>
      <feBlend in2="BackgroundImageFix" result="effect1_dropShadow_105_287"/>
      <feBlend in="SourceGraphic" in2="effect1_dropShadow_105_287" result="shape"/>
    </filter>
    <filter id="b" width="398.454" height="364.295" x="79.883" y="5.955" color-interpolation-filters="sRGB" filterUnits="userSpaceOnUse">
      <feFlood flood-opacity="0" result="BackgroundImageFix"/>
      <feColorMatrix in="SourceAlpha" result="hardAlpha" values="0 0 0 0 0 0 0 0 0 0 0 0 0 0 0 0 0 0 127 0"/>
      <feMorphology in="SourceAlpha" radius="12" result="effect1_dropShadow_105_287"/>
      <feOffset dy="32"/>
      <feGaussianBlur stdDeviation="32"/>
      <feComposite in2="hardAlpha" operator="out"/>
      <feColorMatrix values="0 0 0 0 0 0 0 0 0 0 0 0 0 0 0 0 0 0 0.14 0"/>
      <feBlend in2="BackgroundImageFix" result="effect1_dropShadow_105_287"/>
      <feBlend in="SourceGraphic" in2="effect1_dropShadow_105_287" result="shape"/>
    </filter>
    <filter id="d" width="414.657" height="372.008" x="40.092" y="101.491" color-interpolation-filters="sRGB" filterUnits="userSpaceOnUse">
      <feFlood flood-opacity="0" result="BackgroundImageFix"/>
      <feColorMatrix in="SourceAlpha" result="hardAlpha" values="0 0 0 0 0 0 0 0 0 0 0 0 0 0 0 0 0 0 127 0"/>
      <feMorphology in="SourceAlpha" radius="12" result="effect1_dropShadow_105_287"/>
      <feOffset dy="32"/>
      <feGaussianBlur stdDeviation="32"/>
      <feComposite in2="hardAlpha" operator="out"/>
      <feColorMatrix values="0 0 0 0 0 0 0 0 0 0 0 0 0 0 0 0 0 0 0.14 0"/>
      <feBlend in2="BackgroundImageFix" result="effect1_dropShadow_105_287"/>
      <feBlend in="SourceGraphic" in2="effect1_dropShadow_105_287" result="shape"/>
    </filter>
    <filter id="e" width="390.39" height="409.887" x="0" y="0" color-interpolation-filters="sRGB" filterUnits="userSpaceOnUse">
      <feFlood flood-opacity="0" result="BackgroundImageFix"/>
      <feColorMatrix in="SourceAlpha" result="hardAlpha" values="0 0 0 0 0 0 0 0 0 0 0 0 0 0 0 0 0 0 127 0"/>
      <feMorphology in="SourceAlpha" radius="12" result="effect1_dropShadow_105_287"/>
      <feOffset dy="32"/>
      <feGaussianBlur stdDeviation="32"/>
      <feComposite in2="hardAlpha" operator="out"/>
      <feColorMatrix values="0 0 0 0 0 0 0 0 0 0 0 0 0 0 0 0 0 0 0.14 0"/>
      <feBlend in2="BackgroundImageFix" result="effect1_dropShadow_105_287"/>
      <feBlend in="SourceGraphic" in2="effect1_dropShadow_105_287" result="shape"/>
    </filter>
  </defs>
</svg>
